<svg width="1873" height="798" viewBox="0 0 1873 798" fill="none" xmlns="http://www.w3.org/2000/svg">
<path d="M854.987 540.565C819.808 590.985 768.001 613.886 706.688 613.886C619.318 613.886 539.03 562.657 539.03 442.225L539.03 128.424L644.259 128.424L644.259 412.704C644.259 497.034 679.246 527.093 742.83 527.093C799.562 527.093 853.755 480.06 853.755 388.148L853.755 128.347L959.022 128.347L959.023 602.994L858.605 602.994L858.605 540.565L854.987 540.565Z" fill="black"/>
<path d="M993.333 602.994L1098.6 602.994L1098.6 128.424L993.333 128.424L993.333 602.994Z" fill="black"/>
<path d="M1586.94 449.12C1566.42 517.015 1506.84 599.228 1362.93 599.228C1224.6 599.228 1134 500.619 1134 351.935C1134 201.636 1221.37 102.873 1362.16 102.873C1504.38 102.873 1602.41 202.405 1590.06 375.144L1240.73 375.144C1243.08 458.011 1289.23 518.785 1362.93 518.785C1439.91 518.785 1469.43 470.212 1480.17 437.958L1586.94 449.12ZM1362.16 182.853C1287.69 182.853 1248.7 238.162 1242.42 300.591L1483.36 300.591C1477.09 238.162 1438.1 182.853 1362.16 182.853Z" fill="black"/>
<path d="M1816.93 531.511C1834.08 531.812 1851.16 529.316 1867.51 524.121L1867.51 608.335C1856.42 613.185 1822.82 619.228 1793.8 619.228C1707.2 619.228 1665.21 592.285 1665.21 503.76L1665.21 209.319L1588 209.319L1588 133.919L1665.21 133.919L1665.21 0.439185L1770.44 0.439176L1770.44 133.765L1872.32 133.765L1872.32 209.165L1770.44 209.165L1770.44 489.404C1770.44 525.006 1784.95 531.511 1816.93 531.511Z" fill="black"/>
<path d="M388.91 168.562C349.448 142.869 302.336 127.94 251.736 127.94C112.706 127.94 8.07413e-05 240.647 0.00010505 379.677C0.000129359 518.707 112.706 631.413 251.736 631.413C302.336 631.413 349.449 616.484 388.91 590.791L388.91 797.227L503.473 797.227L503.473 379.677C503.473 291.246 457.876 213.465 388.91 168.562ZM388.91 432.888C388.91 492.732 316.179 525.895 254.751 525.895C175.662 525.895 111.548 461.781 111.548 382.692C111.548 303.603 175.662 239.488 254.751 239.488C316.179 239.488 388.91 277.173 388.91 332.495L388.91 432.888Z" fill="black"/>
</svg>
